<svg xmlns="http://www.w3.org/2000/svg" width="400" height="400" id="list"><path fill="#2A94F4" d="M313.457 67.204v277.155c0 9.327-7.559 16.896-16.898 16.896H56.5c-9.35 0-16.897-7.569-16.897-16.896V67.204c0-9.327 7.548-16.896 16.897-16.896h240.059c9.339 0 16.898 7.569 16.898 16.896z"></path><path fill="#CCE9FF" d="M298.084 82.762v246.04c0 8.28-6.709 15-15 15H69.975c-8.3 0-15-6.72-15-15V82.762c0-8.28 6.7-15 15-15h213.109c8.291 0 15 6.719 15 15z"></path><path fill="#0E538C" d="M221.545 40.348h-6.139v-18.08c0-3.46-2.801-6.27-6.271-6.27h-65.219a6.267 6.267 0 0 0-6.27 6.27v18.08h-6.141c-4.79 0-8.65 3.88-8.65 8.66v26.11h107.34v-26.11c0-4.78-3.869-8.66-8.65-8.66zm-19.02-5.361h-51.99v-7.39c0-2.76 2.24-4.99 5-4.99h41.99c2.76 0 5 2.23 5 4.99v7.39z"></path><path fill="#F7F7F7" d="M111.322 121.248v13.172a4.362 4.362 0 0 1-4.362 4.361H88.621a4.36 4.36 0 0 1-4.363-4.361v-13.172a4.361 4.361 0 0 1 4.363-4.363h18.339a4.362 4.362 0 0 1 4.362 4.363z"></path><path fill="#D3D3D3" d="M204.412 151.643c0 3.959-3.221 7.18-7.191 7.18h-67.77a7.18 7.18 0 0 1-7.18-7.18c0-1.99.8-3.781 2.1-5.08a7.16 7.16 0 0 1 5.08-2.1h67.77c3.97 0 7.191 3.209 7.191 7.18zm64.389-27.571c0 3.959-3.221 7.18-7.189 7.18h-132.16a7.18 7.18 0 0 1-7.18-7.18c0-1.98.8-3.779 2.1-5.08s3.1-2.109 5.08-2.109h132.16a7.19 7.19 0 0 1 7.189 7.189z"></path><path fill="#F7F7F7" d="M111.322 189.178v13.172a4.362 4.362 0 0 1-4.362 4.361H88.621a4.36 4.36 0 0 1-4.363-4.361v-13.172a4.361 4.361 0 0 1 4.363-4.363h18.339a4.362 4.362 0 0 1 4.362 4.363z"></path><path fill="#D3D3D3" d="M204.412 219.572c0 3.959-3.221 7.18-7.191 7.18h-67.77a7.18 7.18 0 0 1-7.18-7.18c0-1.99.8-3.781 2.1-5.08a7.16 7.16 0 0 1 5.08-2.1h67.77c3.97.001 7.191 3.21 7.191 7.18zm64.389-27.57c0 3.959-3.221 7.18-7.189 7.18h-132.16a7.18 7.18 0 0 1-7.18-7.18c0-1.98.8-3.779 2.1-5.08s3.1-2.109 5.08-2.109h132.16a7.19 7.19 0 0 1 7.189 7.189z"></path><path fill="#F7F7F7" d="M111.322 257.107v13.172a4.362 4.362 0 0 1-4.362 4.361H88.621a4.36 4.36 0 0 1-4.363-4.361v-13.172a4.361 4.361 0 0 1 4.363-4.363h18.339a4.362 4.362 0 0 1 4.362 4.363z"></path><path fill="#D3D3D3" d="M204.412 287.502c0 3.959-3.221 7.18-7.191 7.18h-67.77a7.18 7.18 0 0 1-7.18-7.18c0-1.99.8-3.781 2.1-5.08a7.16 7.16 0 0 1 5.08-2.1h67.77c3.97 0 7.191 3.209 7.191 7.18zm64.389-27.57c0 3.959-3.221 7.18-7.189 7.18h-132.16a7.18 7.18 0 0 1-7.18-7.18c0-1.98.8-3.779 2.1-5.08s3.1-2.109 5.08-2.109h132.16a7.19 7.19 0 0 1 7.189 7.189z"></path><path fill="#FFBE55" d="M344.074 145.086v136.181c0 7.584 6.207 9.653 13.791 9.653s13.791-2.069 13.791-9.653V145.086h-27.582z"></path><path fill="#2A94F4" d="M371.656 141.639v-13.446c0-7.585-6.207-9.653-13.791-9.653s-13.791 2.068-13.791 9.653v13.446h27.582z"></path><path fill="#FCD2B1" d="m344.074 285.059 13.791 25.512 13.791-25.512z"></path><path fill="#44390A" d="m352.004 299.194 5.861 11.377 5.862-11.377z"></path><path fill="#D3D3D3" d="M344.074 141.639h27.582v3.447h-27.582z"></path></svg>